# xmcd CD database file
#
# Track frame offsets:
#	150
#	17035
#	35702
#
# Disc length: 785 seconds
#
# Revision: 0
# Processed by: cddbd v1.5.1PL0 Copyright (c) Steve Scherf et al.
# Submitted via: CDex 1.51
#
DISCID=1e030f03
DTITLE=Mebius - ヒステリックな中毒症とロマンティックな妄想癖
DYEAR=1900
DGENRE=Visual_Rock
TTITLE0=「S」中毒
TTITLE1=加害妄想
TTITLE2=Deep Slow
EXTD=
EXTT0=
EXTT1=
EXTT2=
PLAYORDER=
